<svg width="30" height="31" viewBox="0 0 30 31" fill="none" xmlns="http://www.w3.org/2000/svg">
<path d="M21.5011 0.0146484C26.6067 0.0146484 30.0001 3.6589 30.0001 8.88865V21.1406C30.0001 26.3706 26.6065 30.0146 21.4996 30.0146H8.49756C3.39212 30.0146 6.10352e-05 26.3707 6.10352e-05 21.1406V8.88865C6.10352e-05 3.66354 3.4012 0.0146484 8.49756 0.0146484H21.5011ZM21.5011 2.26465H8.49756C4.68057 2.26465 2.25006 4.87221 2.25006 8.88865V21.1406C2.25006 25.1626 4.6722 27.7646 8.49756 27.7646H21.4996C25.3266 27.7646 27.7501 25.1624 27.7501 21.1406V8.88865C27.7501 4.86709 25.3268 2.26465 21.5011 2.26465ZM21.1348 10.6597C21.5342 11.0591 21.5705 11.684 21.2437 12.1245L21.1348 12.2506L14.0158 19.3696C13.6165 19.769 12.9916 19.8053 12.5512 19.4787L12.425 19.3698L8.86398 15.8103C8.42455 15.3711 8.4244 14.6587 8.86365 14.2193C9.26296 13.8198 9.88795 13.7834 10.3284 14.1101L10.4546 14.219L13.219 16.9823L19.5438 10.6597C19.9832 10.2203 20.6955 10.2203 21.1348 10.6597Z" fill="#EEF7FE"/>
</svg>
