<svg width="30" height="30" viewBox="0 0 30 30" fill="none" xmlns="http://www.w3.org/2000/svg">
<path d="M25.3575 0.899414H4.11592C1.95188 0.899414 0.19751 2.65372 0.19751 4.81782V26.0595C0.19751 28.2236 1.95181 29.9779 4.11592 29.9779H14.5922L14.61 19.5868H11.9104C11.5596 19.5868 11.2748 19.3032 11.2735 18.9523L11.2605 15.6029C11.2592 15.2501 11.5448 14.9634 11.8975 14.9634H14.5922V11.727C14.5922 7.97112 16.8861 5.92602 20.2366 5.92602H22.9859C23.3376 5.92602 23.6229 6.21119 23.6229 6.56302V9.38732C23.6229 9.73901 23.3378 10.0241 22.9862 10.0243L21.299 10.0251C19.4769 10.0251 19.1241 10.8909 19.1241 12.1616V14.9635H23.1279C23.5094 14.9635 23.8053 15.2966 23.7604 15.6755L23.3634 19.025C23.3254 19.3455 23.0536 19.587 22.7309 19.587H19.1419L19.1241 29.9781H25.3576C27.5217 29.9781 29.276 28.2238 29.276 26.0597V4.81782C29.2759 2.65372 27.5216 0.899414 25.3575 0.899414Z" fill="#475993"/>
</svg>
