<svg width="30" height="29" viewBox="0 0 30 29" fill="none" xmlns="http://www.w3.org/2000/svg">
<path d="M2.29633 2.12093C0.0551153 4.44889 0.513815 6.92183 0.513815 14.4345C0.513815 20.6733 -0.574705 26.9275 5.1222 28.3999C6.90115 28.8574 22.6633 28.8574 24.4399 28.3975C26.8118 27.7855 28.7417 25.8616 29.0055 22.5069C29.0423 22.0387 29.0423 6.83864 29.0043 6.36093C28.7238 2.78759 26.5242 0.728195 23.6259 0.311087C22.9616 0.214832 22.8285 0.186312 19.4203 0.18037C7.33132 0.186312 4.68133 -0.352007 2.29633 2.12093Z" fill="url(#paint0_linear)"/>
<path d="M14.7715 3.91031C10.4567 3.91031 6.35926 3.52648 4.79421 7.54307C4.14775 9.20199 4.24163 11.3565 4.24163 14.4414C4.24163 17.1484 4.15488 19.6927 4.79421 21.3385C6.35569 25.3575 10.4864 24.9725 14.7691 24.9725C18.901 24.9725 23.1612 25.4026 24.7453 21.3385C25.3929 19.663 25.2978 17.5406 25.2978 14.4414C25.2978 10.3274 25.5248 7.67141 23.5296 5.67737C21.5094 3.65719 18.7774 3.91031 14.7668 3.91031H14.7715ZM13.828 5.80809C22.8285 5.79383 23.974 4.79325 23.3418 18.6933C23.1172 23.6094 19.374 23.0699 14.7727 23.0699C6.38302 23.0699 6.14179 22.8299 6.14179 14.4366C6.14179 5.94594 6.80726 5.81284 13.828 5.80571V5.80809ZM20.3924 7.55614C19.6948 7.55614 19.1292 8.12179 19.1292 8.81934C19.1292 9.5169 19.6948 10.0826 20.3924 10.0826C21.0899 10.0826 21.6556 9.5169 21.6556 8.81934C21.6556 8.12179 21.0899 7.55614 20.3924 7.55614ZM14.7715 9.03325C11.7852 9.03325 9.36457 11.4551 9.36457 14.4414C9.36457 17.4277 11.7852 19.8483 14.7715 19.8483C17.7578 19.8483 20.1773 17.4277 20.1773 14.4414C20.1773 11.4551 17.7578 9.03325 14.7715 9.03325ZM14.7715 10.931C19.412 10.931 19.4179 17.9517 14.7715 17.9517C10.1322 17.9517 10.1251 10.931 14.7715 10.931Z" fill="white"/>
<defs>
<linearGradient id="paint0_linear" x1="2.35101" y1="26.8789" x2="28.8575" y2="3.93787" gradientUnits="userSpaceOnUse">
<stop stop-color="#FFDD55"/>
<stop offset="0.5" stop-color="#FF543E"/>
<stop offset="1" stop-color="#C837AB"/>
</linearGradient>
</defs>
</svg>
