<svg width="27" height="23" viewBox="0 0 27 23" fill="none" xmlns="http://www.w3.org/2000/svg">
<path d="M26.6889 3.19804C25.7005 3.63159 24.6474 3.91896 23.5494 4.05849C24.6789 3.38408 25.541 2.3243 25.9464 1.04691C24.8932 1.67481 23.7304 2.11832 22.4913 2.36583C21.4913 1.30106 20.066 0.641602 18.5112 0.641602C15.4947 0.641602 13.0662 3.09007 13.0662 6.09168C13.0662 6.52357 13.1027 6.93884 13.1924 7.33419C8.66257 7.11326 4.65432 4.9422 1.96168 1.63494C1.49158 2.45054 1.21584 3.38408 1.21584 4.38905C1.21584 6.27606 2.18759 7.9488 3.63607 8.91722C2.76067 8.90061 1.90188 8.64646 1.17431 8.24613C1.17431 8.26274 1.17431 8.28434 1.17431 8.30593C1.17431 10.9537 3.06299 13.153 5.53969 13.6597C5.09618 13.7809 4.6128 13.8391 4.11114 13.8391C3.76231 13.8391 3.41016 13.8191 3.0796 13.746C3.78557 15.9038 5.78886 17.4902 8.17088 17.5417C6.31709 18.9918 3.96331 19.8656 1.41517 19.8656C0.968336 19.8656 0.539771 19.8456 0.111206 19.7908C2.52479 21.3473 5.38521 22.2359 8.46988 22.2359C18.4963 22.2359 23.9779 13.9304 23.9779 6.73121C23.9779 6.49035 23.9696 6.25779 23.958 6.0269C25.0394 5.25947 25.948 4.30101 26.6889 3.19804Z" fill="#03A9F4"/>
</svg>
