<svg width="33" height="19" viewBox="0 0 33 19" fill="none" xmlns="http://www.w3.org/2000/svg">
<path d="M27.0061 10.8024C26.4955 10.1526 26.6416 9.86345 27.0061 9.28258C27.0126 9.27594 31.2272 3.40624 31.6614 1.41564L31.6641 1.41431C31.8799 0.688888 31.6641 0.155762 30.6206 0.155762H27.1679C26.2889 0.155762 25.8837 0.613296 25.6665 1.1252C25.6665 1.1252 23.9086 5.36635 21.4217 8.11553C20.619 8.90992 20.248 9.16455 19.8098 9.16455C19.594 9.16455 19.2585 8.90992 19.2585 8.18449V1.41431C19.2585 0.544334 19.0124 0.155762 18.2848 0.155762H12.8557C12.3043 0.155762 11.9767 0.561575 11.9767 0.939538C11.9767 1.76443 13.2202 1.95407 13.3491 4.2749V9.31043C13.3491 10.4138 13.1504 10.6167 12.7096 10.6167C11.5359 10.6167 8.68713 6.35834 6.99893 1.4846C6.65813 0.539029 6.32523 0.157088 5.43968 0.157088H1.98563C1.00008 0.157088 0.801392 0.614622 0.801392 1.12653C0.801392 2.03099 1.97511 6.52809 6.25944 12.4694C9.11478 16.5249 13.1359 18.7224 16.7939 18.7224C18.9927 18.7224 19.2611 18.2343 19.2611 17.3949C19.2611 13.5197 19.0624 13.1537 20.1638 13.1537C20.6743 13.1537 21.5533 13.4083 23.606 15.3645C25.9521 17.684 26.3376 18.7224 27.6508 18.7224H31.1035C32.0878 18.7224 32.5865 18.2343 32.2996 17.2715C31.643 15.2464 27.2061 11.0809 27.0061 10.8024Z" fill="#4B729F"/>
</svg>
